<svg width="60" height="60" viewBox="0 0 60 60" fill="none" xmlns="http://www.w3.org/2000/svg">
<path d="M50 46.6667H43.9317V40.4833H29.3984V46.6667H23.3334C20.6812 46.6667 18.1377 47.7202 16.2623 49.5956C14.3869 51.471 13.3334 54.0145 13.3334 56.6667V60H60V56.6667C60 51.1433 55.525 46.6667 50 46.6667Z" fill="#FCD01D"/>
<path d="M29.3867 43.2883C31.4133 45.5783 33.9267 46.1983 36.66 46.1983C39.3917 46.1983 41.9033 45.5767 43.9317 43.2883V37.47H29.385L29.3867 43.2883Z" fill="#EEC2AD"/>
<path d="M25.7399 26.56C25.7399 28.9733 24.5166 30.93 23.0083 30.93C21.4999 30.93 20.2766 28.9733 20.2766 26.56C20.2766 24.1467 21.4999 22.1883 23.0083 22.1883C24.5166 22.1867 25.7399 24.145 25.7399 26.56ZM53.0549 26.56C53.0549 28.9733 51.8333 30.93 50.3233 30.93C48.8149 30.93 47.5916 28.9733 47.5916 26.56C47.5916 24.1467 48.8133 22.1883 50.3233 22.1883C51.8333 22.1867 53.0549 24.145 53.0549 26.56Z" fill="#F7DECE"/>
<path d="M22.4617 28.265C22.4617 18.95 28.8217 11.3967 36.6667 11.3967C44.5117 11.3967 50.87 18.95 50.87 28.265C50.87 37.58 44.5117 45.1333 36.6667 45.1333C28.8233 45.1333 22.4617 37.5817 22.4617 28.265Z" fill="#F1D4C2"/>
<path d="M30.8313 35.8479H41.8487L41.5405 36.6248L41.213 36.7537L40.7982 36.965L41.2728 36.7537L41.8011 36.6951V36.6951C41.8272 37.5546 41.1375 38.2655 40.2776 38.2655H38.4677H37.1978H36.2874H35.6404H33.2488C31.9137 38.2655 30.8313 37.1831 30.8313 35.8479V35.8479Z" fill="#E68D74"/>
<path d="M30 28.3333C29.0834 28.3333 28.3334 27.5833 28.3334 26.6667V25C28.3334 24.0833 29.0834 23.3333 30 23.3333C30.9167 23.3333 31.6667 24.0833 31.6667 25V26.6667C31.6667 27.5833 30.9167 28.3333 30 28.3333ZM43.3334 28.3333C42.4167 28.3333 41.6667 27.5833 41.6667 26.6667V25C41.6667 24.0833 42.4167 23.3333 43.3334 23.3333C44.25 23.3333 45 24.0833 45 25V26.6667C45 27.5833 44.25 28.3333 43.3334 28.3333Z" fill="#FDFFF0"/>
<path d="M43.9317 25.8333C43.9317 26.1484 43.6763 26.4039 43.3612 26.4039C43.0461 26.4039 42.7906 26.1484 42.7906 25.8333C42.7906 25.5182 43.0461 25.2628 43.3612 25.2628C43.6763 25.2628 43.9317 25.5182 43.9317 25.8333Z" fill="#FDFFF0"/>
<path d="M37.9083 31.8659H35.4083C34.72 31.8659 34.1583 31.2167 34.1583 30.4211C34.8078 29.7107 35.4508 23.5602 36.1391 23.5602H36.988C37.6763 23.5602 37.9083 29.6007 39.1583 30.4211C39.1583 31.2167 38.5967 31.8659 37.9083 31.8659Z" fill="#FFD0B1"/>
<path d="M45.7833 60C45.3183 53.555 38.965 46.7433 29.7166 43.535C18.5466 39.6583 7.41164 42.5117 4.84498 49.9067C3.72664 53.1333 4.42498 56.6917 6.49331 60H45.7833Z" fill="#716D6C"/>
<path d="M32.97 52.3033C32.47 53.74 33.575 55.43 35.4366 56.0767C37.2983 56.7217 39.2133 56.08 39.71 54.6417C40.21 53.2067 39.105 51.515 37.2433 50.87C35.3816 50.2233 33.4683 50.865 32.97 52.3033Z" fill="#444444"/>
<path d="M9.00164 55.0017C8.5033 56.44 9.6083 58.1283 11.47 58.775C13.3316 59.4217 15.245 58.78 15.7433 57.3417C16.2433 55.905 15.1383 54.215 13.2766 53.5683C11.415 52.9217 9.49997 53.5633 9.00164 55.0017Z" fill="#FF4500"/>
<path d="M12.0817 46.7017C11.5834 48.1383 12.6884 49.8283 14.55 50.475C16.41 51.12 18.325 50.4783 18.8234 49.04C19.3234 47.605 18.2167 45.9133 16.3567 45.2683C14.495 44.62 12.58 45.2617 12.0817 46.7017Z" fill="#3B3355"/>
<path d="M23.7933 46.675C23.34 48.1283 24.4983 49.7817 26.38 50.3683C28.26 50.9567 30.155 50.2533 30.6067 48.8017C31.0583 47.3483 29.9 45.695 28.02 45.1083C26.14 44.52 24.2467 45.2233 23.7933 46.675Z" fill="#FCD01D"/>
<path d="M1.66662 50C1.79662 47.9867 3.98995 44.6933 6.66662 45C9.44161 45.3167 6.88162 50.215 6.66662 51.6667C6.45162 53.1183 6.90662 56.5633 4.99995 56.6667C2.42328 56.8067 1.43328 53.6433 1.66662 50Z" fill="#F7DECE"/>
<circle cx="43.3611" cy="25.8333" r="0.570541" fill="#1C6A31"/>
<circle cx="30" cy="25.8333" r="0.570541" fill="#1C6A31"/>
<path d="M34.8906 40.2774H38.3792L38.5017 41.0182V41.6193L38.3792 42.1681L38.0819 42.0376L37.7821 41.7188L37.8877 42.3461L37.5397 41.9477L37.4747 42.2371L37.4097 42.5265L37.1646 41.7691L37.0731 42.3955H36.8025L36.6025 42.0376L36.4986 41.7691L36.3429 42.8366L36.1995 42.6912L36.0184 42.2371V41.7188L35.9766 42.0376L35.704 42.3955L35.5243 42.1681L35.3571 41.7188V42.0767L35.0858 42.3955L34.8906 41.0182L34.8906 40.2774Z" fill="#61503C"/>
<path d="M33.0146 43.7927H40.6121V44.3789C40.6121 44.721 40.2569 44.9476 39.9466 44.8033V44.8033L39.175 45.1127L38.1613 44.9102L37.4804 45.1127L36.9358 44.9102L36.4062 45.2723L35.9372 45L35.4682 45.2723L35.0294 45L34.8881 45.1416L34.5907 45.2723L34.3129 45.1416L34.2427 44.9102V44.9102C33.5995 45.0163 33.0146 44.52 33.0146 43.8681V43.7927Z" fill="#61503C"/>
<path d="M26.1058 22.8309H34.4152V25.7716V27.9777C34.4152 28.3919 34.0794 28.7277 33.6652 28.7277H26.8558C26.4416 28.7277 26.1058 28.3919 26.1058 27.9777V22.8309Z" stroke="#444444" stroke-width="0.5"/>
<path d="M38.7517 22.8309H47.0617V26.9777C47.0617 27.9442 46.2782 28.7277 45.3117 28.7277H40.5017C39.5352 28.7277 38.7517 27.9442 38.7517 26.9777V22.8309Z" stroke="#444444" stroke-width="0.5"/>
<rect x="34.3931" y="22.5809" width="4.43237" height="0.815582" fill="#444444"/>
<path d="M26.1257 23.1127L23.2772 22.638" stroke="#444444"/>
<path d="M47.1206 23.2079L48.5352 22.7695" stroke="#444444"/>
<path d="M43.3724 35.5767L41.2591 35.12C40.5858 34.9633 39.3041 35 38.7008 35H32.5524C31.9491 35 30.6674 34.9633 29.9924 35.1183L27.8824 35.575C27.8824 36.855 28.1465 36.6324 28.3998 37.2809C28.653 37.9293 29.3962 38.0953 29.3962 37.7433C29.3962 38.106 29.6326 38.2719 29.6326 38.2719L29.9983 38.0402C29.9253 38.4633 30.7253 37.8409 30.7058 38.0402C30.5303 37.4231 30.9213 37.6293 31.0107 37.8085C31.142 38.0662 31.3278 38.1205 31.3278 38.6744C31.6026 38.7646 31.7766 37.804 32.0352 37.6743L32.877 37.6L33.3279 37.7433C33.3501 38.0104 33.6758 37.5621 33.8732 37.7433C34.0705 37.9246 34.4711 38.5788 34.7391 38.5783C34.9423 38.5783 34.5663 38.0802 34.7391 37.9733C34.9119 37.8665 35.6267 38.1551 35.7174 37.9733L35.8308 37.7433H35.3435C35.5335 38.125 36.3778 37.9817 36.5174 38.5783C36.6863 38.5776 36.6486 38.0566 36.7999 37.9817C36.9613 37.8982 37.3032 38.257 37.4043 38.106C37.4043 37.7433 37.5667 37.781 37.5824 37.6L38.4995 37.7433L39.3041 38.4633C39.3041 37.6 39.6833 38.0719 39.9582 37.9817C40.2331 37.8914 40.6398 38.2397 40.7708 37.9817C40.3826 37.5433 40.8958 37.6017 40.8764 37.4026C40.8569 37.2036 40.7823 37.0139 40.6608 36.855L41.6122 38.106C42.2878 37.7433 40.9891 37.2475 42.0534 37.6C42.5284 37.6 42.2068 38.4633 42.3451 37.9817C42.5101 37.4033 43.3724 36.5543 43.3724 35.5767ZM35.8308 5.79999C45.2441 5.79999 51.1274 12.7467 51.1274 18.535C51.1274 24.3233 49.9508 26.64 48.7741 24.3233L46.4208 19.6933C46.4208 19.6933 39.3624 19.6933 37.0091 17.3767C37.0091 17.3767 40.5391 24.3233 33.4791 17.3767C33.4791 17.3767 34.6558 22.0083 27.5958 16.22C27.5958 16.22 24.0658 18.535 22.8891 24.3233C22.5624 25.93 20.5358 24.3233 20.5358 18.535C20.5341 12.7467 25.2408 5.79999 35.8308 5.79999Z" fill="#61503C"/>
<path d="M55.025 10.6417C54.2933 7.26501 48.98 4.16168 41.2467 3.80001C41.8233 3.43001 42.3667 3.13001 42.7867 3.00001C43.9867 2.62668 42.4233 1.47168 41.2583 1.47168C41.2583 1.47168 39.4383 2.31335 38.0417 3.82168C26.7817 4.40168 18.0533 10.5733 18.3333 12.17C18.625 13.8433 20.3867 12.1533 20.455 13.5783C20.5217 15.0033 22.0183 15.1417 22.0183 15.1417C22.0183 15.1417 26.085 14.4733 35.2667 15.2267C44.45 15.9783 49.4383 16.0717 51.7983 16.7067C53.2517 17.0983 53.475 14.8633 53.475 14.8633C53.475 14.8633 55.875 14.5833 55.025 10.6417Z" fill="#3B3355"/>
</svg>
