<svg width="58" height="58" viewBox="0 0 58 58" fill="none" xmlns="http://www.w3.org/2000/svg">
<path d="M0.356415 2.46948C0.356415 1.36491 1.25185 0.469482 2.35641 0.469482H55.0831C56.1877 0.469482 57.0831 1.36491 57.0831 2.46948V55.1962C57.0831 56.3007 56.1877 57.1962 55.0831 57.1962H2.35642C1.25185 57.1962 0.356415 56.3007 0.356415 55.1962V2.46948Z" fill="#FCD01D"/>
<path d="M3.31401 49.0615L10.546 6.05349C10.61 5.47749 11.186 5.02949 11.698 5.02949H12.722C13.042 5.02949 13.618 5.28549 13.81 5.66949L28.658 33.3175H28.786L43.634 5.66949C43.826 5.28549 44.402 5.02949 44.722 5.02949H45.746C46.258 5.02949 46.834 5.47749 46.898 6.05349L54.13 49.0615C54.258 49.8935 53.682 50.4695 52.914 50.4695H45.362C44.786 50.4695 44.21 49.9575 44.146 49.4455L41.266 29.6695H41.138L30.386 50.4055C30.194 50.7895 29.618 51.1095 29.298 51.1095H28.146C27.762 51.1095 27.25 50.7895 27.058 50.4055L16.242 29.6695H16.114L13.298 49.4455C13.234 49.9575 12.722 50.4695 12.082 50.4695H4.53001C3.76201 50.4695 3.18601 49.8935 3.31401 49.0615Z" fill="#444444"/>
</svg>
