<svg width="50" height="31" viewBox="0 0 50 31" fill="none" xmlns="http://www.w3.org/2000/svg">
<g clip-path="url(#clip0_60_165)">
<path d="M14.1391 11.0555C14.1391 11.6682 14.2055 12.1649 14.3213 12.5292C14.4683 12.9389 14.6454 13.3374 14.851 13.7211C14.9338 13.8536 14.9668 13.986 14.9668 14.102C14.9668 14.2674 14.8676 14.4331 14.6523 14.5987L13.6094 15.294C13.4604 15.3934 13.3113 15.443 13.1787 15.443C13.0133 15.443 12.8477 15.3602 12.682 15.2112C12.4588 14.9716 12.2592 14.711 12.0861 14.4331C11.9205 14.1518 11.7549 13.837 11.5729 13.4563C10.2813 14.9793 8.65879 15.7409 6.70527 15.7411C5.31465 15.7411 4.20527 15.3436 3.39395 14.5491C2.58281 13.7541 2.16895 12.6946 2.16895 11.3702C2.16895 9.96294 2.66563 8.82056 3.67559 7.95962C4.68535 7.09868 6.02656 6.66821 7.73184 6.66821C8.29473 6.66821 8.87422 6.71782 9.48672 6.80063C10.0994 6.88345 10.7285 7.01587 11.3908 7.16489V5.9563C11.3908 4.6979 11.1258 3.82056 10.6125 3.30728C10.0828 2.79399 9.18867 2.54556 7.91387 2.54556C7.33438 2.54556 6.73848 2.61196 6.12578 2.76099C5.51309 2.91001 4.91719 3.09204 4.3377 3.32388C4.07285 3.4397 3.87422 3.50591 3.7582 3.53911C3.64219 3.57231 3.55957 3.58872 3.49336 3.58872C3.26152 3.58872 3.1457 3.4231 3.1457 3.07544V2.26411C3.1457 1.99927 3.17891 1.80063 3.26152 1.68481C3.34434 1.5688 3.49336 1.45298 3.7252 1.33716C4.30462 1.03898 4.99994 0.790609 5.81113 0.592041C6.62266 0.376807 7.48359 0.277588 8.39414 0.277588C10.3645 0.277588 11.8049 0.724463 12.732 1.6186C13.6426 2.51255 14.1062 3.87017 14.1062 5.69146V11.0555H14.1391ZM7.41719 13.5721C7.96367 13.5721 8.52656 13.4729 9.12246 13.2741C9.71855 13.0754 10.2484 12.7112 10.6953 12.2145C10.9604 11.9 11.159 11.5524 11.2582 11.1549C11.3576 10.7577 11.4238 10.2774 11.4238 9.7145V9.01919C10.9217 8.89707 10.4132 8.80311 9.90059 8.73774C9.38441 8.67225 8.86465 8.63905 8.34434 8.63833C7.23496 8.63833 6.42383 8.85356 5.87754 9.30063C5.33125 9.74771 5.06621 10.3768 5.06621 11.2045C5.06621 11.9827 5.26484 12.5622 5.67871 12.9596C6.07617 13.3735 6.65566 13.5721 7.41719 13.5721ZM20.7119 15.3602C20.4139 15.3602 20.2152 15.3106 20.0828 15.1946C19.9504 15.0954 19.8344 14.8635 19.7352 14.5491L15.8445 1.75103C15.7449 1.41978 15.6953 1.20454 15.6953 1.08872C15.6953 0.823877 15.8277 0.674658 16.0928 0.674658H17.7152C18.0297 0.674658 18.2451 0.724463 18.3609 0.840283C18.4934 0.939697 18.5928 1.17153 18.692 1.48599L21.4734 12.4463L24.0563 1.48599C24.1391 1.15493 24.2385 0.939697 24.3707 0.840283C24.5033 0.741064 24.7352 0.674854 25.0332 0.674854H26.3576C26.6721 0.674854 26.8875 0.724463 27.0197 0.840283C27.1523 0.939697 27.2682 1.17153 27.3344 1.48599L29.9504 12.5788L32.8145 1.48599C32.9137 1.15493 33.0297 0.939697 33.1455 0.840283C33.2779 0.741064 33.4932 0.674854 33.7912 0.674854H35.3309C35.5959 0.674854 35.7449 0.807275 35.7449 1.08872C35.7449 1.17153 35.7283 1.25435 35.7117 1.35356C35.6951 1.45278 35.6621 1.5854 35.5959 1.76763L31.6057 14.5655C31.5064 14.8967 31.3906 15.112 31.258 15.2112C31.1256 15.3106 30.9104 15.3768 30.6291 15.3768H29.2053C28.8906 15.3768 28.6754 15.3272 28.5428 15.2112C28.4104 15.0954 28.2945 14.8801 28.2283 14.5491L25.6619 3.87017L23.1123 14.5323C23.0297 14.8635 22.9303 15.0788 22.7979 15.1946C22.6654 15.3106 22.4336 15.3602 22.1357 15.3602H20.7119ZM41.9867 15.8073C41.1258 15.8073 40.2648 15.7079 39.4371 15.5092C38.6092 15.3106 37.9637 15.0952 37.5332 14.8471C37.2682 14.6979 37.0859 14.5325 37.0199 14.3834C36.9555 14.2373 36.9217 14.0795 36.9205 13.9198V13.0754C36.9205 12.7278 37.0529 12.5622 37.3014 12.5622C37.4028 12.5625 37.5034 12.5794 37.5994 12.612C37.6986 12.6452 37.8477 12.7112 38.0133 12.7774C38.598 13.0348 39.2085 13.229 39.8344 13.3569C40.4829 13.4884 41.1429 13.5549 41.8047 13.5555C42.8477 13.5555 43.659 13.3735 44.2219 13.0092C44.7848 12.645 45.0828 12.1153 45.0828 11.4364C45.0828 10.9729 44.9338 10.592 44.6357 10.2774C44.3377 9.96274 43.7748 9.68149 42.9637 9.41646L40.5629 8.67153C39.3543 8.29067 38.4604 7.72778 37.9139 6.98267C37.3676 6.25415 37.0861 5.44302 37.0861 4.58208C37.0861 3.88677 37.2352 3.27414 37.5332 2.74419C37.8311 2.2145 38.2285 1.75103 38.7252 1.38677C39.2219 1.00591 39.7848 0.724463 40.4471 0.52583C41.1092 0.327197 41.8045 0.244385 42.533 0.244385C42.8973 0.244385 43.2781 0.260986 43.6424 0.310596C44.0232 0.360205 44.3709 0.426416 44.7186 0.492627C45.0496 0.575439 45.3643 0.658252 45.6623 0.757666C45.9602 0.856885 46.192 0.956169 46.3576 1.05552C46.5895 1.18813 46.7549 1.32056 46.8543 1.46958C46.9536 1.602 47.0033 1.7841 47.0033 2.01587V2.79399C47.0033 3.14165 46.8709 3.32388 46.6225 3.32388C46.49 3.32388 46.2748 3.25747 45.9936 3.12505C45.0495 2.69458 43.9899 2.47935 42.8146 2.47935C41.8709 2.47935 41.1258 2.62837 40.6125 2.94302C40.0994 3.25747 39.8344 3.73774 39.8344 4.41646C39.8344 4.88013 40 5.27739 40.3311 5.59204C40.6621 5.90669 41.2748 6.22114 42.1523 6.50259L44.5033 7.24771C45.6953 7.62856 46.5563 8.15825 47.0695 8.83696C47.5828 9.51567 47.8313 10.294 47.8313 11.1549C47.8313 11.8668 47.682 12.5125 47.4006 13.0754C47.1027 13.6383 46.7053 14.135 46.192 14.5325C45.6787 14.9463 45.0662 15.2444 44.3543 15.4596C43.6092 15.6915 42.8311 15.8073 41.9867 15.8073Z" fill="#252F3E"/>
<path d="M45.1159 23.8536C39.669 27.8768 31.7549 30.0126 24.9504 30.0126C15.4139 30.0126 6.82134 26.486 0.331298 20.6251C-0.181983 20.1616 0.281494 19.5325 0.893993 19.8966C7.91392 23.9696 16.5729 26.4364 25.5299 26.4364C31.5729 26.4364 38.212 25.1782 44.3213 22.5954C45.2319 22.1813 46.01 23.1915 45.1159 23.8536ZM47.3842 21.2708C46.6889 20.3768 42.7815 20.8403 41.01 21.0555C40.4801 21.122 40.3973 20.6583 40.8776 20.3106C43.9901 18.1251 49.1061 18.7544 49.702 19.4827C50.2981 20.2278 49.5364 25.3436 46.6225 27.794C46.1756 28.1749 45.7452 27.9762 45.9438 27.4796C46.6059 25.8403 48.0795 22.1483 47.3842 21.2708Z" fill="#FF9900"/>
</g>
<defs>
<clipPath id="clip0_60_165">
<rect width="50" height="29.8828" fill="white" transform="translate(0 0.227783)"/>
</clipPath>
</defs>
</svg>
