<svg width="51" height="51" viewBox="0 0 51 51" fill="none" xmlns="http://www.w3.org/2000/svg">
<g clip-path="url(#clip0_60_145)">
<path d="M8.31724 45.5615L4.38989 1.51031H47.5461L43.6149 45.5548L25.9418 50.4545L8.31724 45.5615Z" fill="#1572B6"/>
<path d="M25.9684 46.7095L40.2492 42.7502L43.609 5.11188H25.9684V46.7095Z" fill="#33A9DC"/>
<path d="M25.9684 21.0716H33.1176L33.6114 15.5392H25.9684V10.1365H39.516L39.3864 11.5861L38.0582 26.4744H25.9684V21.0716Z" fill="white"/>
<path d="M26.0004 35.1029L25.9766 35.1099L19.9598 33.4853L19.575 29.1763H14.1523L14.909 37.6595L25.9758 40.731L26.0004 40.724V35.1029Z" fill="#EBEBEB"/>
<path d="M32.6583 26.2458L32.0075 33.481L25.9817 35.1076V40.7287L37.0575 37.6591L37.1387 36.7462L38.0786 26.2458H32.6583Z" fill="white"/>
<path d="M25.9867 10.1365V15.5392H12.9367L12.8285 14.3251L12.5824 11.5861L12.4531 10.1365H25.9867ZM25.9684 21.0724V26.4751H20.0273L19.9191 25.2611L19.6727 22.522L19.5438 21.0724H25.9684Z" fill="#EBEBEB"/>
</g>
<defs>
<clipPath id="clip0_60_145">
<rect width="50" height="50" fill="white" transform="translate(0.968018 0.982178)"/>
</clipPath>
</defs>
</svg>
