<svg width="51" height="51" viewBox="0 0 51 51" fill="none" xmlns="http://www.w3.org/2000/svg">
<g clip-path="url(#clip0_60_168)">
<path d="M38.4833 0.0258789H11.9208C5.44869 0.0258789 0.202026 5.27254 0.202026 11.7446V38.3071C0.202026 44.7792 5.44869 50.0259 11.9208 50.0259H38.4833C44.9554 50.0259 50.202 44.7792 50.202 38.3071V11.7446C50.202 5.27254 44.9554 0.0258789 38.4833 0.0258789Z" fill="#242938"/>
<mask id="mask0_60_168" style="mask-type:luminance" maskUnits="userSpaceOnUse" x="12" y="5" width="27" height="40">
<path d="M12.1161 5.49463H38.163V44.5571H12.1161V5.49463Z" fill="white"/>
</mask>
<g mask="url(#mask0_60_168)">
<path d="M18.6292 44.5572C22.2229 44.5572 25.1396 41.6406 25.1396 38.0468V31.5363H18.6292C15.0354 31.5363 12.1187 34.4531 12.1187 38.0468C12.1187 41.6406 15.0354 44.5572 18.6292 44.5572Z" fill="#0ACF83"/>
<path d="M12.1187 25.0259C12.1187 21.4321 15.0354 18.5155 18.6292 18.5155H25.1396V31.5362H18.6292C15.0354 31.5362 12.1187 28.6196 12.1187 25.0259Z" fill="#A259FF"/>
<path d="M12.1187 12.005C12.1187 8.41123 15.0354 5.49463 18.6292 5.49463H25.1396V18.5155H18.6292C15.0354 18.5155 12.1187 15.5987 12.1187 12.005Z" fill="#F24E1E"/>
<path d="M25.1395 5.49463H31.6499C35.2436 5.49463 38.1604 8.41123 38.1604 12.005C38.1604 15.5987 35.2436 18.5155 31.6499 18.5155H25.1395V5.49463Z" fill="#FF7262"/>
<path d="M38.1604 25.0259C38.1604 28.6196 35.2436 31.5362 31.6499 31.5362C28.0561 31.5362 25.1395 28.6196 25.1395 25.0259C25.1395 21.4321 28.0561 18.5155 31.6499 18.5155C35.2436 18.5155 38.1604 21.4321 38.1604 25.0259Z" fill="#1ABCFE"/>
</g>
</g>
<defs>
<clipPath id="clip0_60_168">
<rect width="50" height="50" fill="white" transform="translate(0.202026 0.0258789)"/>
</clipPath>
</defs>
</svg>
