<svg width="51" height="51" viewBox="0 0 51 51" fill="none" xmlns="http://www.w3.org/2000/svg">
<g clip-path="url(#clip0_60_187)">
<path d="M49.3173 23.6078L27.7876 2.0789C26.5486 0.839056 24.5376 0.839056 23.2966 2.0789L18.8263 6.54999L24.4974 12.2211C25.8158 11.7762 27.3267 12.0746 28.3771 13.125C29.4329 14.182 29.729 15.7059 29.2732 17.0285L34.7388 22.4945C36.0611 22.0387 37.5872 22.3332 38.6427 23.391C40.1193 24.8664 40.1193 27.2582 38.6427 28.7344C38.2918 29.0854 37.8752 29.3639 37.4166 29.5539C36.9581 29.7439 36.4666 29.8417 35.9702 29.8417C35.4739 29.8417 34.9824 29.7439 34.5238 29.5539C34.0653 29.3639 33.6487 29.0854 33.2978 28.7344C32.7707 28.2068 32.4114 27.5351 32.2651 26.8038C32.1188 26.0726 32.192 25.3144 32.4755 24.6246L27.3786 19.5277L27.3779 32.9422C27.7477 33.1242 28.0853 33.3654 28.3775 33.6562C29.8533 35.1316 29.8533 37.5227 28.3775 39.0012C26.9013 40.4766 24.5087 40.4766 23.0341 39.0012C21.5583 37.523 21.5583 35.132 23.0341 33.6562C23.388 33.3025 23.8085 33.0224 24.2712 32.832V19.2934C23.808 19.1038 23.3873 18.8234 23.0341 18.4687C21.9161 17.3516 21.647 15.7109 22.2204 14.3375L16.6294 8.74648L1.86692 23.5082C1.27134 24.104 0.936768 24.9119 0.936768 25.7543C0.936768 26.5967 1.27134 27.4046 1.86692 28.0004L23.397 49.5293C24.6368 50.7691 26.647 50.7691 27.8888 49.5293L49.3177 28.1004C49.9132 27.5044 50.2476 26.6965 50.2475 25.854C50.2475 25.0116 49.9129 24.2036 49.3173 23.6078Z" fill="#F34F29"/>
</g>
<defs>
<clipPath id="clip0_60_187">
<rect width="50" height="50" fill="white" transform="translate(0.591919 0.803894)"/>
</clipPath>
</defs>
</svg>
