<svg width="50" height="51" viewBox="0 0 50 51" fill="none" xmlns="http://www.w3.org/2000/svg">
<g clip-path="url(#clip0_60_137)">
<path d="M7.43628 44.8161L3.52808 0.982117H46.4718L42.5593 44.8095L24.9738 49.6845L7.43628 44.8161Z" fill="#E44D26"/>
<path d="M25 45.9583L39.2102 42.0184L42.5535 4.5661H25V45.9583Z" fill="#F16529"/>
<path d="M25 20.8236H17.886L17.3946 15.3181H25V9.94232H11.5192L11.6481 11.3845L12.9692 26.1997H25V20.8236ZM25 34.7857L24.9762 34.7923L18.9891 33.1751L18.6067 28.888H13.2094L13.9625 37.329L24.9754 40.3861L25 40.3794V34.7857Z" fill="#EBEBEB"/>
<path d="M24.9812 20.8236V26.1997H31.6011L30.9773 33.172L24.9812 34.7904V40.3837L36.0027 37.329L36.0835 36.4208L37.3468 22.2673L37.4777 20.8236H36.0292H24.9812ZM24.9812 9.94232V15.3181H37.9671L38.075 14.1103L38.3203 11.3845L38.4488 9.94232H24.9812Z" fill="white"/>
</g>
<defs>
<clipPath id="clip0_60_137">
<rect width="50" height="50" fill="white" transform="translate(0 0.333313)"/>
</clipPath>
</defs>
</svg>
