<svg width="51" height="51" viewBox="0 0 51 51" fill="none" xmlns="http://www.w3.org/2000/svg">
<g clip-path="url(#clip0_60_142)">
<path d="M0.0319824 0.333313H50.032V50.3333H0.0319824V0.333313Z" fill="#F7DF1E"/>
<path d="M13.1789 42.1169L17.0051 39.8013C17.7434 41.1101 18.4148 42.2175 20.0256 42.2175C21.5695 42.2175 22.5432 41.6136 22.5432 39.2644V23.2882H27.2418V39.3308C27.2418 44.1974 24.3891 46.4126 20.227 46.4126C16.4682 46.4126 14.2863 44.466 13.1787 42.1165M29.7939 41.6134L33.6197 39.3984C34.627 41.0431 35.9359 42.2513 38.2516 42.2513C40.1986 42.2513 41.44 41.2779 41.44 39.9353C41.44 38.3244 40.1646 37.7536 38.0166 36.8142L36.8422 36.3103C33.4521 34.8675 31.2035 33.055 31.2035 29.2288C31.2035 25.7046 33.8885 23.0195 38.084 23.0195C41.0711 23.0195 43.2191 24.0601 44.7629 26.7786L41.1043 29.1283C40.2986 27.6851 39.4264 27.1146 38.0838 27.1146C36.7076 27.1146 35.835 27.9872 35.835 29.1283C35.835 30.5378 36.7076 31.1087 38.7213 31.9814L39.8959 32.4847C43.89 34.1966 46.1387 35.9417 46.1387 39.8683C46.1387 44.0976 42.816 46.4132 38.3521 46.4132C33.9891 46.4132 31.1697 44.3324 29.7938 41.6136" fill="black"/>
</g>
<defs>
<clipPath id="clip0_60_142">
<rect width="50" height="50" fill="white" transform="translate(0.0319824 0.333313)"/>
</clipPath>
</defs>
</svg>
