<svg width="51" height="51" viewBox="0 0 51 51" fill="none" xmlns="http://www.w3.org/2000/svg">
<g clip-path="url(#clip0_60_155)">
<path d="M25.8303 30.0865C28.2897 30.0865 30.2834 28.0928 30.2834 25.6334C30.2834 23.174 28.2897 21.1803 25.8303 21.1803C23.3709 21.1803 21.3772 23.174 21.3772 25.6334C21.3772 28.0928 23.3709 30.0865 25.8303 30.0865Z" fill="#61DAFB"/>
<path d="M42.7444 18.2897C41.885 17.9772 40.9866 17.6647 40.0491 17.3912C40.2834 16.4537 40.4788 15.5162 40.635 14.6178C41.4553 9.46155 40.5569 5.82874 38.0569 4.42249C37.3147 3.9928 36.4944 3.79749 35.5569 3.79749C32.8225 3.79749 29.3459 5.82874 25.8303 9.22717C22.3147 5.82874 18.8381 3.79749 16.1038 3.79749C15.1663 3.79749 14.3459 3.9928 13.6038 4.42249C11.1038 5.8678 10.2053 9.50061 11.0256 14.6178C11.1819 15.5162 11.3772 16.4537 11.6116 17.3912C10.6741 17.6647 9.77564 17.9381 8.91626 18.2897C4.03345 20.1647 1.3772 22.7428 1.3772 25.6334C1.3772 28.524 4.07251 31.1022 8.91626 32.9772C9.77564 33.2897 10.6741 33.6022 11.6116 33.8756C11.3772 34.8131 11.1819 35.7506 11.0256 36.649C10.2053 41.8053 11.1038 45.4381 13.6038 46.8444C14.3459 47.274 15.1663 47.4694 16.1038 47.4694C18.8772 47.4694 22.3538 45.4381 25.8303 42.0397C29.3459 45.4381 32.8225 47.4694 35.5569 47.4694C36.4944 47.4694 37.3147 47.274 38.0569 46.8444C40.5569 45.399 41.4553 41.7662 40.635 36.649C40.4788 35.7506 40.2834 34.8131 40.0491 33.8756C40.9866 33.6022 41.885 33.3287 42.7444 32.9772C47.6272 31.1022 50.2834 28.524 50.2834 25.6334C50.2834 22.7428 47.6272 20.1647 42.7444 18.2897ZM36.9631 6.37561C38.5647 7.31311 39.1116 10.2037 38.4475 14.3053C38.3303 15.1256 38.135 15.985 37.9006 16.8834C35.8694 16.4147 33.7209 16.1022 31.4553 15.9069C30.1272 14.0319 28.76 12.3522 27.3928 10.8287C30.2834 7.97717 33.2131 6.02405 35.5959 6.02405C36.1038 6.02405 36.5725 6.14124 36.9631 6.37561ZM32.5881 29.5397C31.885 30.7897 31.0647 32.0397 30.2053 33.2897C28.76 33.4069 27.3147 33.4459 25.8303 33.4459C24.3069 33.4459 22.8616 33.4069 21.4553 33.2897C20.5959 32.0397 19.8147 30.7897 19.1116 29.5397C18.3694 28.2506 17.6663 26.9225 17.0413 25.6334C17.6663 24.3444 18.3694 23.0162 19.1116 21.7272C19.8147 20.4772 20.635 19.2272 21.4944 17.9772C22.9397 17.86 24.385 17.8209 25.8694 17.8209C27.3928 17.8209 28.8381 17.86 30.2444 17.9772C31.1038 19.2272 31.885 20.4772 32.5881 21.7272C33.3303 23.0162 34.0334 24.3444 34.6584 25.6334C33.9944 26.9225 33.3303 28.2115 32.5881 29.5397ZM35.8303 28.2506C36.4163 29.6178 36.885 30.9459 37.3147 32.274C35.9866 32.5865 34.5803 32.8209 33.0959 33.0162C33.5647 32.274 34.0725 31.4928 34.5022 30.6725C34.9709 29.8522 35.4006 29.0319 35.8303 28.2506ZM25.8303 38.8365C24.8928 37.8209 23.9944 36.7272 23.135 35.5944C24.0334 35.6334 24.9319 35.6725 25.8303 35.6725C26.7288 35.6725 27.6272 35.6334 28.5256 35.5944C27.6663 36.7272 26.7678 37.8209 25.8303 38.8365ZM18.5647 32.9772C17.0803 32.7819 15.6741 32.5475 14.3459 32.235C14.7756 30.9459 15.2444 29.5787 15.8303 28.2115C16.26 28.9928 16.6897 29.8131 17.1584 30.5944C17.6272 31.4537 18.0959 32.1959 18.5647 32.9772ZM15.8303 23.0162C15.2444 21.649 14.7756 20.3209 14.3459 18.9928C15.6741 18.6803 17.0803 18.4459 18.5647 18.2506C18.0959 18.9928 17.5881 19.774 17.1584 20.5944C16.6897 21.4147 16.26 22.235 15.8303 23.0162ZM25.8303 12.4303C26.7678 13.4459 27.6663 14.5397 28.5256 15.6725C27.6272 15.6334 26.7288 15.5944 25.8303 15.5944C24.9319 15.5944 24.0334 15.6334 23.135 15.6725C23.9944 14.5397 24.8928 13.4459 25.8303 12.4303ZM34.5022 20.6334L33.0959 18.2897C34.5803 18.485 35.9866 18.7194 37.3147 19.0319C36.885 20.3209 36.4163 21.6881 35.8303 23.0553C35.4006 22.235 34.9709 21.4147 34.5022 20.6334ZM13.2131 14.3053C12.5491 10.2037 13.0959 7.31311 14.6975 6.37561C15.0881 6.14124 15.5569 6.02405 16.0647 6.02405C18.4084 6.02405 21.3381 7.93811 24.2678 10.8287C22.9006 12.3131 21.5334 14.0319 20.2053 15.9069C17.9397 16.1022 15.7913 16.4537 13.76 16.8834C13.5256 15.985 13.3694 15.1256 13.2131 14.3053ZM3.5647 25.6334C3.5647 23.7975 5.79126 21.8444 9.69751 20.399C10.4788 20.0865 11.3381 19.8131 12.1975 19.5787C12.8225 21.5319 13.6038 23.6022 14.5413 25.6725C13.6038 27.7428 12.7834 29.774 12.1975 31.7272C6.80688 30.1647 3.5647 27.8209 3.5647 25.6334ZM14.6975 44.8912C13.0959 43.9537 12.5491 41.0631 13.2131 36.9615C13.3303 36.1412 13.5256 35.2819 13.76 34.3834C15.7913 34.8522 17.9397 35.1647 20.2053 35.36C21.5334 37.235 22.9006 38.9147 24.2678 40.4381C21.3772 43.2897 18.4475 45.2428 16.0647 45.2428C15.5569 45.2428 15.0881 45.1256 14.6975 44.8912ZM38.4475 36.9615C39.1116 41.0631 38.5647 43.9537 36.9631 44.8912C36.5725 45.1256 36.1038 45.2428 35.5959 45.2428C33.2522 45.2428 30.3225 43.3287 27.3928 40.4381C28.76 38.9537 30.1272 37.235 31.4553 35.36C33.7209 35.1647 35.8694 34.8131 37.9006 34.3834C38.135 35.2819 38.2913 36.1412 38.4475 36.9615ZM41.9631 30.8678C41.1819 31.1803 40.3225 31.4537 39.4631 31.6881C38.8381 29.735 38.0569 27.6647 37.1194 25.5944C38.0569 23.524 38.8772 21.4928 39.4631 19.5397C44.8538 21.1022 48.0959 23.4459 48.0959 25.6334C48.0959 27.4694 45.8303 29.4225 41.9631 30.8678Z" fill="#61DAFB"/>
</g>
<defs>
<clipPath id="clip0_60_155">
<rect width="50" height="50" fill="white" transform="translate(0.830322 0.633423)"/>
</clipPath>
</defs>
</svg>
