<svg width="51" height="51" viewBox="0 0 51 51" fill="none" xmlns="http://www.w3.org/2000/svg">
<g clip-path="url(#clip0_60_152)">
<path d="M9.68579 18.8696H48.6194V47.647H9.68579V18.8696Z" fill="white"/>
<path d="M1.41626 25.4751V49.8892H50.2444V1.06104H1.41626V25.4751ZM40.7639 23.522C41.9334 23.7934 42.9963 24.405 43.8186 25.2798C44.2712 25.7511 44.6647 26.2758 44.9905 26.8423C44.9905 26.9048 42.8811 28.3306 41.5959 29.1274C41.5491 29.1587 41.3616 28.9556 41.1545 28.647C40.9199 28.2422 40.5866 27.9034 40.1856 27.6622C39.7847 27.4211 39.3291 27.2855 38.8616 27.2681C37.3811 27.1665 36.428 27.9438 36.4358 29.2212C36.4239 29.5392 36.4967 29.8546 36.6467 30.1353C36.9709 30.811 37.5764 31.2134 39.4749 32.0337C42.9709 33.5376 44.467 34.5298 45.3967 35.9399C46.4358 37.5024 46.6663 40.0259 45.9631 41.8931C45.1819 43.9243 43.2678 45.3032 40.5608 45.7603C39.3244 45.9019 38.0752 45.8888 36.842 45.7212C34.9521 45.4097 33.2111 44.5022 31.8733 43.1313C31.4241 42.6353 30.5491 41.3423 30.6038 41.2485C30.7461 41.1423 30.8963 41.0469 31.053 40.9634L32.8616 39.9634L34.2639 39.1509L34.5569 39.5845C35.0515 40.2916 35.6807 40.8942 36.4084 41.3579C37.9709 42.1782 40.1038 42.0649 41.1584 41.1157C41.5126 40.7679 41.7335 40.3069 41.7827 39.813C41.832 39.319 41.7064 38.8235 41.428 38.4126C41.0374 37.8696 40.2561 37.4126 38.0725 36.4595C35.553 35.3735 34.467 34.7017 33.4749 33.6313C32.8557 32.9249 32.3984 32.0917 32.135 31.1899C31.9387 30.1596 31.9097 29.1045 32.0491 28.0649C32.5686 25.6313 34.3928 23.9321 37.0569 23.4282C38.2907 23.2758 39.5403 23.31 40.7639 23.5298V23.522ZM29.303 25.5688V27.5688H22.9631V45.6274H18.467V27.5649H12.1116V25.6118C12.0916 24.9383 12.1073 24.2642 12.1584 23.5923C12.1897 23.5571 16.0647 23.5571 20.7522 23.5571H29.2795L29.303 25.5688Z" fill="#007ACC"/>
</g>
<defs>
<clipPath id="clip0_60_152">
<rect width="50" height="50" fill="white" transform="translate(0.830322 0.510254)"/>
</clipPath>
</defs>
</svg>
