<svg width="51" height="51" viewBox="0 0 51 51" fill="none" xmlns="http://www.w3.org/2000/svg">
<path d="M49.1518 8.11961L26.7136 48.2438C26.2499 49.0723 25.0597 49.077 24.5897 48.2532L1.70614 8.1243C1.19325 7.22508 1.96083 6.13719 2.97997 6.31883L25.4425 10.3333C25.5858 10.3594 25.7327 10.3594 25.8761 10.3333L47.8683 6.32508C48.8831 6.14031 49.6554 7.21922 49.1518 8.11961Z" fill="url(#paint0_linear_60_162)"/>
<path d="M36.1417 1.0532L19.5378 4.30632C19.4052 4.33222 19.2851 4.4014 19.1961 4.503C19.1072 4.6046 19.0545 4.73286 19.0464 4.86765L18.0241 22.1208C18.0186 22.2154 18.0352 22.31 18.0726 22.3971C18.11 22.4842 18.1672 22.5613 18.2395 22.6225C18.3119 22.6837 18.3976 22.7272 18.4897 22.7495C18.5818 22.7718 18.6778 22.7724 18.7702 22.7512L23.3936 21.6829C23.4932 21.66 23.5969 21.6625 23.6953 21.6901C23.7936 21.7177 23.8835 21.7696 23.9566 21.841C24.0297 21.9124 24.0837 22.001 24.1136 22.0987C24.1436 22.1963 24.1485 22.3 24.128 22.4001L22.7542 29.1262C22.7332 29.2298 22.7394 29.337 22.7723 29.4374C22.8051 29.5378 22.8635 29.6279 22.9417 29.699C23.0198 29.77 23.1151 29.8196 23.2181 29.8428C23.3212 29.866 23.4285 29.862 23.5296 29.8313L26.3843 28.963C26.8268 28.8286 27.2526 29.2177 27.1596 29.6708L24.9761 40.236C24.8401 40.8969 25.719 41.2571 26.0854 40.6907L26.3296 40.3126L39.8608 13.3087C40.0882 12.8555 39.6964 12.3399 39.2007 12.436L34.4409 13.3548C34.3385 13.3747 34.2327 13.3679 34.1336 13.3351C34.0345 13.3023 33.9456 13.2446 33.8753 13.1675C33.8049 13.0905 33.7556 12.9966 33.732 12.895C33.7084 12.7933 33.7113 12.6874 33.7405 12.5872L36.846 1.82077C36.8752 1.72024 36.878 1.61389 36.8541 1.51196C36.8303 1.41003 36.7806 1.31596 36.7098 1.23883C36.639 1.1617 36.5496 1.1041 36.45 1.07158C36.3505 1.03907 36.2443 1.03274 36.1417 1.0532Z" fill="url(#paint1_linear_60_162)"/>
<defs>
<linearGradient id="paint0_linear_60_162" x1="1.14685" y1="4.88508" x2="29.0741" y2="42.8125" gradientUnits="userSpaceOnUse">
<stop stop-color="#41D1FF"/>
<stop offset="1" stop-color="#BD34FE"/>
</linearGradient>
<linearGradient id="paint1_linear_60_162" x1="24.1534" y1="1.936" x2="29.2053" y2="36.5915" gradientUnits="userSpaceOnUse">
<stop stop-color="#FFEA83"/>
<stop offset="0.083" stop-color="#FFDD35"/>
<stop offset="1" stop-color="#FFA800"/>
</linearGradient>
</defs>
</svg>
