<svg width="60" height="60" viewBox="0 0 60 60" fill="none" xmlns="http://www.w3.org/2000/svg">
<g clip-path="url(#clip0_25_47)">
<path d="M50 46.6667H43.9317V40.4833H29.3983V46.6667H23.3333C20.6812 46.6667 18.1376 47.7202 16.2623 49.5956C14.3869 51.471 13.3333 54.0145 13.3333 56.6667V60H60V56.6667C60 51.1433 55.525 46.6667 50 46.6667Z" fill="#FCD01D"/>
<path d="M29.3867 43.2883C31.4133 45.5783 33.9267 46.1983 36.66 46.1983C39.3917 46.1983 41.9033 45.5767 43.9317 43.2883V37.47H29.385L29.3867 43.2883Z" fill="#EEC2AD"/>
<path d="M25.74 26.56C25.74 28.9733 24.5167 30.93 23.0083 30.93C21.5 30.93 20.2767 28.9733 20.2767 26.56C20.2767 24.1467 21.5 22.1883 23.0083 22.1883C24.5167 22.1867 25.74 24.145 25.74 26.56ZM53.055 26.56C53.055 28.9733 51.8333 30.93 50.3233 30.93C48.815 30.93 47.5917 28.9733 47.5917 26.56C47.5917 24.1467 48.8133 22.1883 50.3233 22.1883C51.8333 22.1867 53.055 24.145 53.055 26.56Z" fill="#F7DECE"/>
<path d="M22.4617 28.265C22.4617 18.95 28.8217 11.3967 36.6667 11.3967C44.5117 11.3967 50.87 18.95 50.87 28.265C50.87 37.58 44.5117 45.1333 36.6667 45.1333C28.8233 45.1333 22.4617 37.5817 22.4617 28.265Z" fill="#F1D4C2"/>
<path d="M44.2083 35.5767L42.095 35.12C41.4217 34.9633 40.14 35 39.5367 35H33.3883C32.785 35 31.5033 34.9633 30.8283 35.1183L28.7183 35.575C28.1383 35.7433 27.8017 36.23 27.9683 36.8083C28.105 37.2883 28.5433 37.5433 29.0183 37.5433C29.1167 37.5433 29.2183 37.5 29.3183 37.4733L31.43 36.855C31.3076 37.0135 31.2324 37.2032 31.2129 37.4025C31.1935 37.6018 31.2306 37.8025 31.32 37.9817C31.4513 38.2394 31.6792 38.4347 31.954 38.5249C32.2288 38.6152 32.5281 38.593 32.7867 38.4633L34.51 37.6C34.5322 37.867 34.6541 38.1159 34.8514 38.2972C35.0487 38.4785 35.307 38.5788 35.575 38.5783C35.7782 38.5784 35.9773 38.5218 36.1502 38.4149C36.323 38.308 36.4626 38.1551 36.5533 37.9733L36.6667 37.7433L36.5783 37.9733C36.7683 38.355 36.9517 38.5783 37.3533 38.5783C37.5222 38.5776 37.6887 38.5382 37.84 38.4633C38.0014 38.3799 38.1391 38.257 38.2402 38.1061C38.3413 37.9551 38.4026 37.781 38.4183 37.6L40.14 38.4633C40.3984 38.5935 40.6979 38.6159 40.9729 38.5256C41.2478 38.4353 41.4757 38.2397 41.6067 37.9817C41.6951 37.8023 41.7317 37.6017 41.7123 37.4027C41.6928 37.2036 41.6182 37.0139 41.4967 36.855L43.6067 37.4733C43.705 37.5 43.8083 37.5433 43.9083 37.5433C44.3833 37.5433 44.82 37.29 44.9583 36.8083C45.1233 36.23 44.7883 35.7433 44.2083 35.5767ZM36.6667 5.8C46.08 5.8 51.9633 12.7467 51.9633 18.535C51.9633 24.3233 50.7867 26.64 49.61 24.3233L47.2567 19.6933C47.2567 19.6933 40.1983 19.6933 37.845 17.3767C37.845 17.3767 41.375 24.3233 34.315 17.3767C34.315 17.3767 35.4917 22.0083 28.4317 16.22C28.4317 16.22 24.9017 18.535 23.725 24.3233C23.3983 25.93 21.3717 24.3233 21.3717 18.535C21.37 12.7467 26.0767 5.8 36.6667 5.8Z" fill="#61503C"/>
<path d="M30 28.3333C29.0833 28.3333 28.3333 27.5833 28.3333 26.6667V25C28.3333 24.0833 29.0833 23.3333 30 23.3333C30.9167 23.3333 31.6667 24.0833 31.6667 25V26.6667C31.6667 27.5833 30.9167 28.3333 30 28.3333ZM43.3333 28.3333C42.4167 28.3333 41.6667 27.5833 41.6667 26.6667V25C41.6667 24.0833 42.4167 23.3333 43.3333 23.3333C44.25 23.3333 45 24.0833 45 25V26.6667C45 27.5833 44.25 28.3333 43.3333 28.3333Z" fill="#FDFFF0"/>
<path d="M43.9317 25.8333C43.9317 26.1484 43.6762 26.4039 43.3611 26.4039C43.046 26.4039 42.7906 26.1484 42.7906 25.8333C42.7906 25.5182 43.046 25.2628 43.3611 25.2628C43.6762 25.2628 43.9317 25.5182 43.9317 25.8333Z" fill="#FDFFF0"/>
<path d="M37.9167 32.9167H35.4167C34.7283 32.9167 34.1667 32.355 34.1667 31.6667C34.1667 30.9783 34.7283 30.4167 35.4167 30.4167H37.9167C38.605 30.4167 39.1667 30.9783 39.1667 31.6667C39.1667 32.355 38.605 32.9167 37.9167 32.9167Z" fill="#F8CFC3"/>
<path d="M55.025 10.6417C54.2933 7.265 48.98 4.16167 41.2467 3.8C41.8233 3.43 42.3667 3.13 42.7867 3C43.9867 2.62667 42.4233 1.47167 41.2583 1.47167C41.2583 1.47167 39.4383 2.31333 38.0417 3.82167C26.7817 4.40167 18.0533 10.5733 18.3333 12.17C18.625 13.8433 20.3867 12.1533 20.455 13.5783C20.5217 15.0033 22.0183 15.1417 22.0183 15.1417C22.0183 15.1417 26.085 14.4733 35.2667 15.2267C44.45 15.9783 49.4383 16.0717 51.7983 16.7067C53.2517 17.0983 53.475 14.8633 53.475 14.8633C53.475 14.8633 55.875 14.5833 55.025 10.6417Z" fill="#3B3355"/>
<path d="M45.7833 60C45.3183 53.555 38.965 46.7433 29.7167 43.535C18.5467 39.6583 7.41167 42.5117 4.845 49.9067C3.72667 53.1333 4.425 56.6917 6.49333 60H45.7833Z" fill="#716D6C"/>
<path d="M32.97 52.3033C32.47 53.74 33.575 55.43 35.4367 56.0767C37.2983 56.7217 39.2133 56.08 39.71 54.6417C40.21 53.2067 39.105 51.515 37.2433 50.87C35.3817 50.2233 33.4683 50.865 32.97 52.3033Z" fill="#444444"/>
<path d="M9.00167 55.0017C8.50333 56.44 9.60833 58.1283 11.47 58.775C13.3317 59.4217 15.245 58.78 15.7433 57.3417C16.2433 55.905 15.1383 54.215 13.2767 53.5683C11.415 52.9217 9.5 53.5633 9.00167 55.0017Z" fill="#FF4500"/>
<path d="M12.0817 46.7017C11.5833 48.1383 12.6883 49.8283 14.55 50.475C16.41 51.12 18.325 50.4783 18.8233 49.04C19.3233 47.605 18.2167 45.9133 16.3567 45.2683C14.495 44.62 12.58 45.2617 12.0817 46.7017Z" fill="#3B3355"/>
<path d="M23.7933 46.675C23.34 48.1283 24.4983 49.7817 26.38 50.3683C28.26 50.9567 30.155 50.2533 30.6067 48.8017C31.0583 47.3483 29.9 45.695 28.02 45.1083C26.14 44.52 24.2467 45.2233 23.7933 46.675Z" fill="#FCD01D"/>
<path d="M1.66667 50C1.79667 47.9867 3.99 44.6933 6.66667 45C9.44167 45.3167 6.88167 50.215 6.66667 51.6667C6.45167 53.1183 6.90667 56.5633 5 56.6667C2.42333 56.8067 1.43333 53.6433 1.66667 50Z" fill="#F7DECE"/>
<path d="M43.3611 26.4038C43.6762 26.4038 43.9316 26.1484 43.9316 25.8333C43.9316 25.5182 43.6762 25.2628 43.3611 25.2628C43.046 25.2628 42.7906 25.5182 42.7906 25.8333C42.7906 26.1484 43.046 26.4038 43.3611 26.4038Z" fill="#1C6A31"/>
<path d="M30 26.4038C30.3151 26.4038 30.5705 26.1484 30.5705 25.8333C30.5705 25.5182 30.3151 25.2628 30 25.2628C29.6849 25.2628 29.4295 25.5182 29.4295 25.8333C29.4295 26.1484 29.6849 26.4038 30 26.4038Z" fill="#1C6A31"/>
</g>
<defs>
<clipPath id="clip0_25_47">
<rect width="60" height="60" fill="white"/>
</clipPath>
</defs>
</svg>
