<svg  viewBox="0 0 21 20" fill="none" xmlns="http://www.w3.org/2000/svg">
<path d="M0.774902 2.00061C0.774902 0.896041 1.67033 0.000610352 2.7749 0.000610352H18.7749C19.8795 0.000610352 20.7749 0.896041 20.7749 2.00061V18.0006C20.7749 19.1052 19.8795 20.0006 18.7749 20.0006H2.7749C1.67033 20.0006 0.774902 19.1052 0.774902 18.0006V2.00061Z" fill="#444444"/>
<path d="M9.52647 15.4287C9.52641 15.3368 9.50616 15.246 9.46714 15.1628C9.42812 15.0796 9.37129 15.0059 9.30068 14.9471C9.23006 14.8883 9.14738 14.8457 9.05849 14.8223C8.96959 14.799 8.87666 14.7955 8.78625 14.812C7.96447 14.9626 6.92753 14.9852 6.65214 14.2111C6.41195 13.6112 6.01371 13.0877 5.49977 12.6961C5.46263 12.6767 5.42753 12.6535 5.39501 12.6271C5.35002 12.5086 5.2702 12.4065 5.16606 12.3343C5.06192 12.2621 4.93834 12.2231 4.81161 12.2225H4.80847C4.64264 12.2225 4.48356 12.2881 4.366 12.4051C4.24845 12.5221 4.18199 12.6808 4.18116 12.8467C4.17865 13.3579 4.68928 13.686 4.89692 13.7964C5.14202 14.0418 5.33867 14.3313 5.47656 14.6496C5.70553 15.2913 6.36922 16.2655 8.27813 16.14L8.28001 16.2015L8.28252 16.3696C8.28252 16.536 8.34861 16.6956 8.46625 16.8132C8.5839 16.9309 8.74346 16.997 8.90983 16.997C9.0762 16.997 9.23576 16.9309 9.3534 16.8132C9.47105 16.6956 9.53714 16.536 9.53714 16.3696L9.534 16.1702C9.53087 16.051 9.52647 15.8791 9.52647 15.4287ZM16.218 5.93997C16.2385 5.86177 16.2573 5.77394 16.2745 5.6765C16.3753 4.97742 16.2869 4.2641 16.0185 3.61077C15.9847 3.52563 15.9326 3.44893 15.866 3.38608C15.7993 3.32322 15.7197 3.27572 15.6327 3.24693C15.4094 3.17165 14.5851 3.02298 13.008 4.03107C11.6972 3.72332 10.3329 3.72332 9.02212 4.03107C7.45133 3.03741 6.63144 3.17291 6.41 3.24379C6.32093 3.27158 6.23917 3.31888 6.1707 3.38225C6.10222 3.44563 6.04874 3.52348 6.01416 3.61014C5.73937 4.27589 5.65174 5.00408 5.76073 5.71602C5.7762 5.7959 5.79272 5.86992 5.81029 5.93809C5.29038 6.63041 5.01343 7.47493 5.02239 8.34069C5.02026 8.53363 5.02927 8.72654 5.04936 8.91844C5.25888 11.806 7.14081 12.6723 8.45189 12.9702C8.42374 13.0528 8.39904 13.1365 8.37787 13.2212C8.33802 13.3827 8.36398 13.5535 8.45004 13.6959C8.5361 13.8383 8.6752 13.9407 8.83675 13.9805C8.9983 14.0204 9.16906 13.9944 9.31146 13.9084C9.45387 13.8223 9.55626 13.6832 9.59611 13.5216C9.63685 13.3129 9.73909 13.1211 9.88969 12.9709C9.98096 12.8907 10.047 12.7858 10.0798 12.6689C10.1126 12.552 10.1108 12.428 10.0745 12.3121C10.0382 12.1962 9.96911 12.0933 9.8755 12.016C9.78189 11.9386 9.66784 11.89 9.54718 11.8762C7.38045 11.6284 6.43948 10.7458 6.29771 8.80302C6.28266 8.64917 6.27575 8.49464 6.27701 8.34006C6.26715 7.72315 6.47106 7.12183 6.85413 6.63817C6.89245 6.58784 6.93327 6.53948 6.97646 6.49326C7.05332 6.40728 7.105 6.30178 7.1258 6.18834C7.14661 6.0749 7.13574 5.95793 7.09439 5.85027C7.05219 5.73718 7.01966 5.6207 6.99716 5.50211C6.94618 5.16426 6.96303 4.81964 7.04672 4.48838C7.59216 4.64188 8.10538 4.89265 8.56167 5.2286C8.63697 5.27919 8.72234 5.31285 8.81191 5.32725C8.90147 5.34166 8.99309 5.33647 9.08046 5.31203C10.3484 4.96863 11.685 4.96884 12.9528 5.31266C13.0407 5.33693 13.1328 5.34175 13.2227 5.3268C13.3126 5.31185 13.3982 5.27748 13.4735 5.22609C13.9283 4.88968 14.4394 4.63691 14.9828 4.47959C15.0667 4.80265 15.0852 5.13918 15.0374 5.46949C15.0147 5.59959 14.9792 5.72714 14.9314 5.85027C14.89 5.95793 14.8792 6.0749 14.9 6.18834C14.9208 6.30178 14.9725 6.40728 15.0493 6.49326C15.0982 6.54784 15.1466 6.60618 15.1898 6.66138C15.5703 7.13681 15.7707 7.73132 15.7557 8.34006C15.7568 8.50285 15.7488 8.66558 15.7318 8.82748C15.5938 10.7445 14.6497 11.6278 12.473 11.8762C12.3522 11.8899 12.2379 11.9384 12.1442 12.0159C12.0505 12.0933 11.9812 12.1963 11.945 12.3123C11.9087 12.4283 11.9069 12.5524 11.9398 12.6694C11.9727 12.7865 12.039 12.8914 12.1304 12.9715C12.2863 13.1252 12.3888 13.3248 12.4228 13.5411C12.4658 13.7091 12.4855 13.8822 12.4811 14.0555V15.519C12.4748 15.9255 12.4748 16.2297 12.4748 16.3696C12.4748 16.536 12.5409 16.6956 12.6586 16.8132C12.7762 16.9309 12.9358 16.997 13.1021 16.997C13.2685 16.997 13.4281 16.9309 13.5457 16.8132C13.6634 16.6956 13.7295 16.536 13.7295 16.3696C13.7295 16.2335 13.7295 15.9355 13.7357 15.529V14.0549C13.7398 13.7776 13.7071 13.5011 13.6385 13.2325C13.619 13.1442 13.5947 13.0571 13.5657 12.9715C14.5201 12.8132 15.3874 12.3213 16.0129 11.5832C16.6385 10.8452 16.9817 9.90911 16.9814 8.94165C17.0017 8.74178 17.0114 8.54096 17.0103 8.34006C17.0242 7.47361 16.745 6.62788 16.218 5.93997Z" fill="white"/>
</svg>
