<svg  viewBox="0 0 21 20" fill="none" xmlns="http://www.w3.org/2000/svg">
<path d="M0.669312 2.00061C0.669312 0.896041 1.56474 0.000610352 2.66931 0.000610352H18.6693C19.7739 0.000610352 20.6693 0.896041 20.6693 2.00061V18.0006C20.6693 19.1052 19.7739 20.0006 18.6693 20.0006H2.66931C1.56474 20.0006 0.669312 19.1052 0.669312 18.0006V2.00061Z" fill="#444444"/>
<path d="M15.8693 4.80061H5.46931C4.75431 4.80061 4.17581 5.38561 4.17581 6.10061L4.16931 13.9006C4.16931 14.6156 4.75431 15.2006 5.46931 15.2006H15.8693C16.5843 15.2006 17.1693 14.6156 17.1693 13.9006V6.10061C17.1693 5.38561 16.5843 4.80061 15.8693 4.80061ZM15.2193 13.9006H6.11931C5.76181 13.9006 5.46931 13.6081 5.46931 13.2506V7.40061L9.98031 10.2216C10.4028 10.4881 10.9358 10.4881 11.3583 10.2216L15.8693 7.40061V13.2506C15.8693 13.6081 15.5768 13.9006 15.2193 13.9006ZM10.6693 9.35061L5.46931 6.10061H15.8693L10.6693 9.35061Z" fill="white"/>
</svg>
