<svg width="51" height="58" viewBox="0 0 51 58" fill="none" xmlns="http://www.w3.org/2000/svg">
<g clip-path="url(#clip0_60_185)">
<path d="M25.1526 56.9741C24.3762 56.9741 23.6516 56.767 22.9788 56.4047L16.0946 52.3157C15.0594 51.7463 15.577 51.5393 15.8875 51.4358C17.285 50.97 17.5438 50.8665 18.993 50.0381C19.1485 49.9346 19.3555 49.9864 19.5106 50.0899L24.7903 53.2473C24.9973 53.3508 25.2561 53.3508 25.4114 53.2473L46.0637 41.2909C46.2708 41.1874 46.3743 40.9803 46.3743 40.7215V16.86C46.3743 16.6012 46.2708 16.3942 46.0637 16.2907L25.4114 4.38579C25.2043 4.28228 24.9456 4.28228 24.7903 4.38579L4.13794 16.2909C3.93091 16.3944 3.82739 16.6532 3.82739 16.8602V40.7215C3.82739 40.9286 3.93091 41.1874 4.13794 41.2909L9.77993 44.5516C12.8338 46.1043 14.7487 44.2928 14.7487 42.4813V18.9303C14.7487 18.6198 15.0077 18.3092 15.37 18.3092H18.0098C18.3204 18.3092 18.6309 18.568 18.6309 18.9303V42.4811C18.6309 46.5702 16.4051 48.951 12.5231 48.951C11.3327 48.951 10.401 48.951 7.76138 47.6571L2.32642 44.5516C0.980713 43.775 0.152588 42.3258 0.152588 40.7731V16.912C0.152588 15.3592 0.980713 13.91 2.32642 13.1334L22.9788 1.177C24.2727 0.452393 26.0325 0.452393 27.3264 1.177L47.9788 13.1334C49.3245 13.9098 50.1526 15.359 50.1526 16.912V40.7733C50.1526 42.326 49.3245 43.7752 47.9788 44.5516L27.3264 56.5084C26.6536 56.819 25.8772 56.9743 25.1526 56.9743M31.519 40.5663C22.461 40.5663 20.5977 36.4256 20.5977 32.9059C20.5977 32.5954 20.8565 32.2848 21.2188 32.2848H23.9102C24.2208 32.2848 24.4797 32.4918 24.4797 32.8024C24.8938 35.5456 26.0842 36.8915 31.5708 36.8915C35.9186 36.8915 37.7821 35.9081 37.7821 33.579C37.7821 32.2331 37.2645 31.2497 30.4838 30.5766C24.842 30.0073 21.3223 28.7651 21.3223 24.2622C21.3223 20.0694 24.8418 17.585 30.7426 17.585C37.3678 17.585 40.6288 19.8624 41.0428 24.8313C41.0428 24.9866 40.9911 25.1419 40.8875 25.2971C40.784 25.4006 40.6288 25.5041 40.4735 25.5041H37.7821C37.5231 25.5041 37.2645 25.2971 37.2125 25.0383C36.5915 22.1917 34.987 21.26 30.7426 21.26C25.9809 21.26 25.4114 22.9163 25.4114 24.1584C25.4114 25.6596 26.0842 26.1252 32.5024 26.9534C38.869 27.7815 41.8709 28.9721 41.8709 33.4235C41.8192 37.9784 38.0926 40.5663 31.519 40.5663Z" fill="#539E43"/>
</g>
<defs>
<clipPath id="clip0_60_185">
<rect width="50" height="56.4453" fill="white" transform="translate(0.152588 0.633453)"/>
</clipPath>
</defs>
</svg>
